<svg width="24" height="24" viewBox="0 0 24 24" fill="none" xmlns="http://www.w3.org/2000/svg">
<path d="M12.0661 2.66626C17.2562 2.66626 21.4633 6.87337 21.4633 12.0634C21.4633 17.2535 17.2562 21.4606 12.0661 21.4606C6.87606 21.4606 2.66895 17.2535 2.66895 12.0634H4.54838C4.54838 16.2151 7.91444 19.5812 12.0661 19.5812C16.2178 19.5812 19.5838 16.2151 19.5838 12.0634C19.5838 7.91176 16.2178 4.54569 12.0661 4.54569C9.75065 4.54569 7.67951 5.59254 6.30095 7.23798L8.30724 9.24427H2.66895V3.60598L4.96843 5.90452C6.69093 3.92172 9.23192 2.66626 12.0661 2.66626ZM13.0058 7.36484V11.6734L16.0533 14.7209L14.7236 16.0506L11.1264 12.4515V7.36484H13.0058Z" fill="#F98080"/>
</svg>
