<svg width="117" height="50" viewBox="0 0 117 50" fill="none" xmlns="http://www.w3.org/2000/svg">
<path d="M0.914062 12.7578V4.85938C0.914062 4.17188 1.14062 3.44531 1.59375 2.67969C2.46875 1.19531 3.79688 0.460938 5.57812 0.476562V2.49219C4.82812 2.50781 4.19531 2.77344 3.67969 3.28906C3.21094 3.78906 2.97656 4.3125 2.97656 4.85938V12.7578C2.97656 13.0234 3.0625 13.3281 3.23438 13.6719C3.71875 14.625 4.5 15.1016 5.57812 15.1016V17.1172C4.04688 17.1016 2.82812 16.5312 1.92188 15.4062C1.25 14.5469 0.914062 13.6641 0.914062 12.7578ZM6.72656 17.1172V15.1016L7.19531 15.0312C7.50781 14.9844 7.85156 14.8203 8.22656 14.5391C8.61719 14.2578 8.88281 13.8906 9.02344 13.4375C9.08594 13.2656 9.13281 13 9.16406 12.6406C9.17969 12.5625 9.1875 12.4375 9.1875 12.2656L11.1328 12.7344C11.1328 13.8438 10.7344 14.8281 9.9375 15.6875C9.04688 16.6406 7.97656 17.1172 6.72656 17.1172ZM6.72656 2.49219V0.476562C7.77344 0.476562 8.75 0.890625 9.65625 1.71875C10.6406 2.65625 11.1328 3.71875 11.1328 4.90625L9.16406 5.42188V5.04688C9.13281 4.73438 9.08594 4.48438 9.02344 4.29688C8.72656 3.53125 8.1875 2.98438 7.40625 2.65625C6.95312 2.54688 6.72656 2.49219 6.72656 2.49219ZM12.75 13.625V4.34375H14.7422V13.3906C14.7422 13.9531 15.0234 14.4219 15.5859 14.7969C15.9609 15.0312 16.375 15.1484 16.8281 15.1484V17.1172C15.3281 17.1172 14.1719 16.5312 13.3594 15.3594C12.9531 14.7656 12.75 14.1875 12.75 13.625ZM17.8594 17.1172V15.1484C18.7031 15.1484 19.3203 14.8125 19.7109 14.1406C19.8516 13.8906 19.9219 13.6406 19.9219 13.3906V4.34375H21.9141V13.625C21.9141 14.3594 21.5781 15.0859 20.9062 15.8047C20.0938 16.6641 19.0781 17.1016 17.8594 17.1172ZM23.2734 13.6719L25.125 13.3203C25.125 14.0234 25.4922 14.5781 26.2266 14.9844C26.5859 15.1562 26.9297 15.25 27.2578 15.2656V17.1172C25.7422 17.1172 24.6094 16.5703 23.8594 15.4766C23.4688 14.8984 23.2734 14.2969 23.2734 13.6719ZM23.3906 7.90625C23.3906 6.48438 24.0391 5.42969 25.3359 4.74219C25.9609 4.41406 26.5859 4.25 27.2109 4.25V6.07812C26.4922 6.07812 25.9375 6.375 25.5469 6.96875C25.3438 7.26562 25.2422 7.57812 25.2422 7.90625C25.2422 8.40625 25.6328 8.8125 26.4141 9.125C27.0078 9.375 28.1562 9.70312 29.8594 10.1094C30.9219 10.3281 31.6797 10.8516 32.1328 11.6797C32.3672 12.1172 32.4844 12.6094 32.4844 13.1562C32.4844 14.6562 31.8828 15.7656 30.6797 16.4844C29.9766 16.9062 29.1719 17.1172 28.2656 17.1172V15.2656C28.9844 15.2656 29.5859 15.0156 30.0703 14.5156C30.4141 14.1562 30.5859 13.7344 30.5859 13.25C30.5859 12.625 29.9688 12.125 28.7344 11.75C28.4219 11.6562 27.9219 11.5234 27.2344 11.3516C26.5 11.1797 25.9688 11.0391 25.6406 10.9297C24.4531 10.4609 23.7344 9.75 23.4844 8.79688C23.4219 8.51562 23.3906 8.21875 23.3906 7.90625ZM28.2422 6.10156V4.25C29.5859 4.25 30.6719 4.75 31.5 5.75C32.0156 6.39062 32.2734 7.0625 32.2734 7.76562L30.4219 8.07031C30.4219 7.21094 29.9531 6.60938 29.0156 6.26562C28.7344 6.15625 28.4766 6.10156 28.2422 6.10156ZM33.3516 6.35938V4.46094H34.8984V0.40625H36.8906V4.46094H38.3906V6.38281H36.8906V13.1094C36.8906 14.2188 37.3438 14.8359 38.25 14.9609C38.4219 14.9922 38.5938 15.0078 38.7656 15.0078H39.0938L39.5391 17H38.6953C36.7734 16.9844 35.5938 16.2656 35.1562 14.8438C35 14.3125 34.9219 13.6562 34.9219 12.875L34.8984 6.35938H33.3516ZM40.5469 13.5312V7.74219C40.5469 7.00781 40.875 6.28906 41.5312 5.58594C42.3438 4.74219 43.3594 4.32031 44.5781 4.32031V6.21875C43.6562 6.21875 43.0156 6.60156 42.6562 7.36719C42.5469 7.60156 42.4922 7.83594 42.4922 8.07031V13.2266C42.4922 13.8047 42.7578 14.2969 43.2891 14.7031C43.6641 14.9844 44.0938 15.125 44.5781 15.125V17.0234C43.0938 17.0234 41.9453 16.4219 41.1328 15.2188C40.7422 14.625 40.5469 14.0625 40.5469 13.5312ZM45.5859 17.0234V15.125C46.4141 15.125 47.0078 14.75 47.3672 14C47.4922 13.75 47.5547 13.5078 47.5547 13.2734V8.07031C47.5547 7.42969 47.2812 6.92188 46.7344 6.54688C46.3906 6.32812 46 6.21875 45.5625 6.21875V4.32031C47 4.32031 48.1094 4.90625 48.8906 6.07812C49.2812 6.65625 49.4766 7.21094 49.4766 7.74219V13.5312C49.4766 14.2969 49.1484 15.0391 48.4922 15.7578C47.7266 16.5859 46.7578 17.0078 45.5859 17.0234ZM51.2578 17V7.74219C51.2578 6.86719 51.5859 6.08594 52.2422 5.39844C52.9766 4.64844 53.9062 4.27344 55.0312 4.27344V6.19531C54.1875 6.19531 53.6328 6.5625 53.3672 7.29688C53.2891 7.53125 53.25 7.76562 53.25 8V17H51.2578ZM56.0859 6.19531V4.27344C57.2734 4.30469 58.2109 4.71875 58.8984 5.51562C59.6797 4.71875 60.6172 4.30469 61.7109 4.27344V6.19531C60.8672 6.19531 60.3047 6.5625 60.0234 7.29688C59.9453 7.51562 59.9062 7.75 59.9062 8V17H57.9141V8C57.9141 7.20312 57.5781 6.65625 56.9062 6.35938C56.6562 6.25 56.3828 6.19531 56.0859 6.19531ZM62.7656 6.19531V4.27344C64.25 4.27344 65.3516 4.88281 66.0703 6.10156C66.3984 6.66406 66.5625 7.21094 66.5625 7.74219V17H64.5703V8C64.5703 7.14062 64.2109 6.57812 63.4922 6.3125C63.2734 6.23438 63.0312 6.19531 62.7656 6.19531ZM68.3672 13.5312V7.71875C68.3828 7 68.7266 6.28906 69.3984 5.58594C70.2109 4.75781 71.1953 4.33594 72.3516 4.32031V6.17188C71.6016 6.17188 71.0156 6.5 70.5938 7.15625C70.4219 7.4375 70.3359 7.69531 70.3359 7.92969V9.52344H75.5859V7.92969C75.5859 7.22656 75.2266 6.71094 74.5078 6.38281C74.1797 6.22656 73.8438 6.14844 73.5 6.14844V4.32031C74.5781 4.32031 75.5391 4.70312 76.3828 5.46875C77.0859 6.14062 77.4453 6.88281 77.4609 7.69531V11.4219H70.3359V13.5312C70.3359 13.9688 70.5859 14.375 71.0859 14.75C71.4922 15.0312 71.9219 15.1719 72.375 15.1719V17C70.9531 17 69.8359 16.4219 69.0234 15.2656C68.5859 14.6562 68.3672 14.0781 68.3672 13.5312ZM73.5 17V15.1484C74.4375 15.1484 75.1406 14.7422 75.6094 13.9297C75.7031 13.7578 75.7734 13.5938 75.8203 13.4375L77.4844 14.0469C77.2031 15.125 76.5625 15.9375 75.5625 16.4844C74.9219 16.8281 74.2344 17 73.5 17ZM79.4062 17V4.32031H81.3984V6.05469C81.8047 5.36719 82.4141 4.85938 83.2266 4.53125C83.6641 4.35938 84.0938 4.27344 84.5156 4.27344H84.9375L84.4688 6.19531C83.6094 6.21094 82.8438 6.67188 82.1719 7.57812C81.6562 8.29688 81.3984 9.03906 81.3984 9.80469V17H79.4062ZM0.984375 45V33.2812H1.19531L3.02344 37.7344V45H0.984375ZM0.984375 29.8828V28.5938H2.64844L8.03906 41.6484L11.8828 32.9531H12.1172V37.5L8.8125 45H7.26562L0.984375 29.8828ZM13.2891 45V28.5938H15.3281V45H13.2891ZM17.0859 42.0469V40.9219C17.0859 39.9062 17.4844 39.1641 18.2812 38.6953C18.5312 38.5703 19.4922 38.2734 21.1641 37.8047C23.0234 37.2891 23.9531 36.8359 23.9531 36.4453V36C23.9531 35.625 23.8594 35.2812 23.6719 34.9688C23.3125 34.375 22.7656 34.0781 22.0312 34.0781V32.2734C23.1094 32.2734 24.0078 32.6172 24.7266 33.3047C25.4922 34.0547 25.875 34.9297 25.875 35.9297V42.3516C25.8906 42.8359 26.1016 43.0938 26.5078 43.125V44.9766C25.7266 44.9766 25.0938 44.7031 24.6094 44.1562C23.9844 44.6875 23.125 44.9609 22.0312 44.9766V43.1484C22.1719 43.1484 22.3203 43.1406 22.4766 43.125C23.4609 42.9688 23.9531 42.3828 23.9531 41.3672V38.6719C23.5469 38.8906 22.7656 39.1406 21.6094 39.4219C20.125 39.7812 19.2891 40.0469 19.1016 40.2188C18.9297 40.375 18.8359 40.625 18.8203 40.9688V41.6016C18.8359 42.6016 19.5234 43.1172 20.8828 43.1484V44.9766C19.9141 44.9766 19.0703 44.7266 18.3516 44.2266C17.5078 43.6328 17.0859 42.9062 17.0859 42.0469ZM17.25 35.4609C17.25 34.7109 17.5469 34.0391 18.1406 33.4453C18.9062 32.6641 19.8281 32.2734 20.9062 32.2734V34.1016C20.6094 34.1016 20.3281 34.1641 20.0625 34.2891C19.3438 34.6328 18.9844 35.2422 18.9844 36.1172L17.25 35.4609ZM28.1719 45V35.7422C28.1719 34.9922 28.5078 34.2578 29.1797 33.5391C30.0078 32.6953 31.0312 32.2734 32.25 32.2734V34.2188C31.4531 34.2188 30.8438 34.5312 30.4219 35.1562C30.25 35.4219 30.1641 35.6953 30.1641 35.9766V45H28.1719ZM33.2812 34.2188V32.2734C34.7344 32.2734 35.8672 32.8594 36.6797 34.0312C37.1172 34.6406 37.3359 35.2109 37.3359 35.7422V45H35.3438V35.9766C35.3438 35.4922 35.1016 35.0625 34.6172 34.6875C34.2266 34.375 33.7812 34.2188 33.2812 34.2188ZM39 42.0469V40.9219C39 39.9062 39.3984 39.1641 40.1953 38.6953C40.4453 38.5703 41.4062 38.2734 43.0781 37.8047C44.9375 37.2891 45.8672 36.8359 45.8672 36.4453V36C45.8672 35.625 45.7734 35.2812 45.5859 34.9688C45.2266 34.375 44.6797 34.0781 43.9453 34.0781V32.2734C45.0234 32.2734 45.9219 32.6172 46.6406 33.3047C47.4062 34.0547 47.7891 34.9297 47.7891 35.9297V42.3516C47.8047 42.8359 48.0156 43.0938 48.4219 43.125V44.9766C47.6406 44.9766 47.0078 44.7031 46.5234 44.1562C45.8984 44.6875 45.0391 44.9609 43.9453 44.9766V43.1484C44.0859 43.1484 44.2344 43.1406 44.3906 43.125C45.375 42.9688 45.8672 42.3828 45.8672 41.3672V38.6719C45.4609 38.8906 44.6797 39.1406 43.5234 39.4219C42.0391 39.7812 41.2031 40.0469 41.0156 40.2188C40.8438 40.375 40.75 40.625 40.7344 40.9688V41.6016C40.75 42.6016 41.4375 43.1172 42.7969 43.1484V44.9766C41.8281 44.9766 40.9844 44.7266 40.2656 44.2266C39.4219 43.6328 39 42.9062 39 42.0469ZM39.1641 35.4609C39.1641 34.7109 39.4609 34.0391 40.0547 33.4453C40.8203 32.6641 41.7422 32.2734 42.8203 32.2734V34.1016C42.5234 34.1016 42.2422 34.1641 41.9766 34.2891C41.2578 34.6328 40.8984 35.2422 40.8984 36.1172L39.1641 35.4609ZM49.7812 49.3359L50.2734 47.5078H54.6797C55.5547 47.4766 56.1953 47.1328 56.6016 46.4766C56.7266 46.2578 56.7891 46.0625 56.7891 45.8906V44.2031C56.1484 44.6562 55.5078 44.8984 54.8672 44.9297V43.125C55.5547 43.125 56.1016 42.8359 56.5078 42.2578C56.6953 41.9922 56.7891 41.7266 56.7891 41.4609V35.7188C56.7891 35.125 56.4609 34.6562 55.8047 34.3125C55.4922 34.1562 55.1797 34.0781 54.8672 34.0781V32.2266C55.5703 32.2266 56.1875 32.4453 56.7188 32.8828C56.75 32.8984 56.7734 32.9141 56.7891 32.9297V32.2266H58.6875V45.8906C58.6875 46.5625 58.3828 47.2578 57.7734 47.9766C57.0078 48.8672 56.0625 49.3203 54.9375 49.3359H49.7812ZM50.0156 41.4844V35.625C50.0312 34.8906 50.3594 34.1719 51 33.4688C51.7656 32.6562 52.7109 32.2422 53.8359 32.2266V34.0781C53.0703 34.0781 52.4922 34.4062 52.1016 35.0625C51.9609 35.2969 51.8906 35.5078 51.8906 35.6953V41.4609C51.8906 41.9297 52.1328 42.3438 52.6172 42.7031C52.9766 42.9531 53.3828 43.0781 53.8359 43.0781V44.9297C52.3984 44.9141 51.3047 44.3047 50.5547 43.1016C50.1953 42.5234 50.0156 41.9844 50.0156 41.4844ZM60.5156 41.5312V35.7188C60.5312 35 60.875 34.2891 61.5469 33.5859C62.3594 32.7578 63.3438 32.3359 64.5 32.3203V34.1719C63.75 34.1719 63.1641 34.5 62.7422 35.1562C62.5703 35.4375 62.4844 35.6953 62.4844 35.9297V37.5234H67.7344V35.9297C67.7344 35.2266 67.375 34.7109 66.6562 34.3828C66.3281 34.2266 65.9922 34.1484 65.6484 34.1484V32.3203C66.7266 32.3203 67.6875 32.7031 68.5312 33.4688C69.2344 34.1406 69.5938 34.8828 69.6094 35.6953V39.4219H62.4844V41.5312C62.4844 41.9688 62.7344 42.375 63.2344 42.75C63.6406 43.0312 64.0703 43.1719 64.5234 43.1719V45C63.1016 45 61.9844 44.4219 61.1719 43.2656C60.7344 42.6562 60.5156 42.0781 60.5156 41.5312ZM65.6484 45V43.1484C66.5859 43.1484 67.2891 42.7422 67.7578 41.9297C67.8516 41.7578 67.9219 41.5938 67.9688 41.4375L69.6328 42.0469C69.3516 43.125 68.7109 43.9375 67.7109 44.4844C67.0703 44.8281 66.3828 45 65.6484 45ZM71.4609 45V35.7422C71.4609 34.8672 71.7891 34.0859 72.4453 33.3984C73.1797 32.6484 74.1094 32.2734 75.2344 32.2734V34.1953C74.3906 34.1953 73.8359 34.5625 73.5703 35.2969C73.4922 35.5312 73.4531 35.7656 73.4531 36V45H71.4609ZM76.2891 34.1953V32.2734C77.4766 32.3047 78.4141 32.7188 79.1016 33.5156C79.8828 32.7188 80.8203 32.3047 81.9141 32.2734V34.1953C81.0703 34.1953 80.5078 34.5625 80.2266 35.2969C80.1484 35.5156 80.1094 35.75 80.1094 36V45H78.1172V36C78.1172 35.2031 77.7812 34.6562 77.1094 34.3594C76.8594 34.25 76.5859 34.1953 76.2891 34.1953ZM82.9688 34.1953V32.2734C84.4531 32.2734 85.5547 32.8828 86.2734 34.1016C86.6016 34.6641 86.7656 35.2109 86.7656 35.7422V45H84.7734V36C84.7734 35.1406 84.4141 34.5781 83.6953 34.3125C83.4766 34.2344 83.2344 34.1953 82.9688 34.1953ZM88.5703 41.5312V35.7188C88.5859 35 88.9297 34.2891 89.6016 33.5859C90.4141 32.7578 91.3984 32.3359 92.5547 32.3203V34.1719C91.8047 34.1719 91.2188 34.5 90.7969 35.1562C90.625 35.4375 90.5391 35.6953 90.5391 35.9297V37.5234H95.7891V35.9297C95.7891 35.2266 95.4297 34.7109 94.7109 34.3828C94.3828 34.2266 94.0469 34.1484 93.7031 34.1484V32.3203C94.7812 32.3203 95.7422 32.7031 96.5859 33.4688C97.2891 34.1406 97.6484 34.8828 97.6641 35.6953V39.4219H90.5391V41.5312C90.5391 41.9688 90.7891 42.375 91.2891 42.75C91.6953 43.0312 92.125 43.1719 92.5781 43.1719V45C91.1562 45 90.0391 44.4219 89.2266 43.2656C88.7891 42.6562 88.5703 42.0781 88.5703 41.5312ZM93.7031 45V43.1484C94.6406 43.1484 95.3438 42.7422 95.8125 41.9297C95.9062 41.7578 95.9766 41.5938 96.0234 41.4375L97.6875 42.0469C97.4062 43.125 96.7656 43.9375 95.7656 44.4844C95.125 44.8281 94.4375 45 93.7031 45ZM99.5156 45V35.7422C99.5156 34.9922 99.8516 34.2578 100.523 33.5391C101.352 32.6953 102.375 32.2734 103.594 32.2734V34.2188C102.797 34.2188 102.188 34.5312 101.766 35.1562C101.594 35.4219 101.508 35.6953 101.508 35.9766V45H99.5156ZM104.625 34.2188V32.2734C106.078 32.2734 107.211 32.8594 108.023 34.0312C108.461 34.6406 108.68 35.2109 108.68 35.7422V45H106.688V35.9766C106.688 35.4922 106.445 35.0625 105.961 34.6875C105.57 34.375 105.125 34.2188 104.625 34.2188ZM109.969 34.3594V32.4609H111.516V28.4062H113.508V32.4609H115.008V34.3828H113.508V41.1094C113.508 42.2188 113.961 42.8359 114.867 42.9609C115.039 42.9922 115.211 43.0078 115.383 43.0078H115.711L116.156 45H115.312C113.391 44.9844 112.211 44.2656 111.773 42.8438C111.617 42.3125 111.539 41.6562 111.539 40.875L111.516 34.3594H109.969Z" fill="black"/>
</svg>
