<svg width="20" height="20" viewBox="0 0 20 20" fill="none" xmlns="http://www.w3.org/2000/svg">
<g opacity="0.4">
<path fill-rule="evenodd" clip-rule="evenodd" d="M2.54 0H5.92C7.33 0 8.46 1.15 8.46 2.561V5.97C8.46 7.39 7.33 8.53 5.92 8.53H2.54C1.14 8.53 0 7.39 0 5.97V2.561C0 1.15 1.14 0 2.54 0ZM2.54 11.4697H5.92C7.33 11.4697 8.46 12.6107 8.46 14.0307V17.4397C8.46 18.8497 7.33 19.9997 5.92 19.9997H2.54C1.14 19.9997 0 18.8497 0 17.4397V14.0307C0 12.6107 1.14 11.4697 2.54 11.4697ZM17.4591 0H14.0791C12.6691 0 11.5391 1.15 11.5391 2.561V5.97C11.5391 7.39 12.6691 8.53 14.0791 8.53H17.4591C18.8591 8.53 19.9991 7.39 19.9991 5.97V2.561C19.9991 1.15 18.8591 0 17.4591 0ZM14.0791 11.4697H17.4591C18.8591 11.4697 19.9991 12.6107 19.9991 14.0307V17.4397C19.9991 18.8497 18.8591 19.9997 17.4591 19.9997H14.0791C12.6691 19.9997 11.5391 18.8497 11.5391 17.4397V14.0307C11.5391 12.6107 12.6691 11.4697 14.0791 11.4697Z" fill="#030229"/>
</g>
</svg>
