<svg width="4" height="18" viewBox="0 0 4 18" fill="none" xmlns="http://www.w3.org/2000/svg">
<path d="M3.23743 16.7374C3.92085 16.054 3.92085 14.946 3.23743 14.2626C2.55402 13.5791 1.44598 13.5791 0.762562 14.2626C0.0791463 14.946 0.0791463 16.054 0.762561 16.7374C1.44595 17.4209 2.55399 17.4209 3.23743 16.7374Z" fill="#B3B3BF"/>
<path d="M3.23743 10.2374C3.92085 9.55402 3.92085 8.44598 3.23743 7.76257C2.55402 7.07915 1.44598 7.07915 0.762562 7.76257C0.0791463 8.44598 0.0791463 9.55402 0.762561 10.2374C1.44595 10.9209 2.55399 10.9209 3.23743 10.2374Z" fill="#B3B3BF"/>
<path d="M3.23743 3.73744C3.92085 3.05402 3.92085 1.94598 3.23743 1.26256C2.55402 0.579148 1.44598 0.579148 0.762562 1.26256C0.0791463 1.94598 0.0791463 3.05402 0.762561 3.73744C1.44595 4.42085 2.55399 4.42085 3.23743 3.73744Z" fill="#B3B3BF"/>
</svg>
