<svg width="24" height="24" viewBox="0 0 24 24" fill="none" xmlns="http://www.w3.org/2000/svg">
<path fill-rule="evenodd" clip-rule="evenodd" d="M5.189 3.44053C6.22173 2.96968 7.38612 2.87283 8.48245 3.16659C9.01592 3.30953 9.3325 3.85787 9.18956 4.39133C9.04662 4.9248 8.49828 5.24138 7.96481 5.09844C7.31698 4.92485 6.62893 4.98208 6.01868 5.26031C5.40843 5.53854 4.914 6.02043 4.62018 6.62334C4.32637 7.22624 4.25149 7.91259 4.40838 8.56467C4.56527 9.21675 4.94415 9.79392 5.48005 10.1972C5.77079 10.416 5.91974 10.7754 5.86899 11.1357C5.81823 11.496 5.57578 11.8003 5.23591 11.9303C4.55657 12.19 3.93249 12.5913 3.40832 13.1154C3.23173 13.292 3.06913 13.4799 2.9212 13.6774C2.61297 14.0889 2.63307 14.4336 2.79528 14.7423C2.98682 15.1068 3.42695 15.4847 4.0495 15.6806C4.57634 15.8463 4.86907 16.4077 4.70335 16.9345C4.53762 17.4614 3.97619 17.7541 3.44936 17.5884C2.42756 17.267 1.5088 16.5936 1.02485 15.6727C0.511562 14.6959 0.539536 13.521 1.32046 12.4784C1.52509 12.2052 1.74998 11.9453 1.99411 11.7012C2.37052 11.3248 2.78421 10.9942 3.22649 10.7131C2.87049 10.2101 2.61016 9.64053 2.46387 9.03252C2.19836 7.929 2.32509 6.76749 2.82231 5.74719C3.31953 4.72688 4.15626 3.91138 5.189 3.44053ZM17.9803 5.26031C17.37 4.98208 16.682 4.92485 16.0342 5.09844C15.5007 5.24138 14.9524 4.9248 14.8094 4.39133C14.6665 3.85787 14.983 3.30953 15.5165 3.16659C16.6128 2.87283 17.7772 2.96968 18.81 3.44053C19.8427 3.91138 20.6794 4.72688 21.1767 5.74719C21.6739 6.76749 21.8006 7.929 21.5351 9.03252C21.3888 9.64053 21.1285 10.2101 20.7725 10.7131C21.2148 10.9942 21.6285 11.3248 22.0049 11.7012C22.249 11.9453 22.4739 12.2052 22.6785 12.4784C23.4594 13.521 23.4874 14.6959 22.9741 15.6727C22.4902 16.5936 21.5714 17.267 20.5496 17.5884C20.0228 17.7541 19.4613 17.4614 19.2956 16.9345C19.1299 16.4077 19.4226 15.8463 19.9495 15.6806C20.572 15.4847 21.0121 15.1068 21.2037 14.7423C21.3659 14.4336 21.386 14.0889 21.0778 13.6774C20.9298 13.4799 20.7672 13.292 20.5906 13.1154C20.0665 12.5913 19.4424 12.19 18.7631 11.9303C18.4232 11.8003 18.1807 11.496 18.13 11.1357C18.0792 10.7754 18.2282 10.416 18.5189 10.1972C19.0548 9.79392 19.4337 9.21675 19.5906 8.56467C19.7475 7.91259 19.6726 7.22624 19.3788 6.62334C19.085 6.02043 18.5905 5.53854 17.9803 5.26031ZM11.9996 7C10.4041 7 9.11072 8.2934 9.11072 9.88889C9.11072 11.4844 10.4042 12.7778 11.9996 12.7778C13.5951 12.7778 14.8885 11.4844 14.8885 9.88889C14.8885 8.2934 13.5951 7 11.9996 7ZM15.243 13.5471C16.2524 12.6515 16.8885 11.3444 16.8885 9.88889C16.8885 7.18883 14.6997 5 11.9996 5C9.29955 5 7.11072 7.18883 7.11072 9.88889C7.11072 11.3444 7.74683 12.6515 8.75623 13.5471C8.07344 13.8902 7.44324 14.3427 6.89275 14.8932C6.64862 15.1373 6.42373 15.3972 6.2191 15.6704C5.76047 16.2826 5.54451 16.9651 5.58254 17.6538C5.61998 18.3319 5.89891 18.939 6.29767 19.4291C7.08236 20.3936 8.39808 21.0001 9.77741 21.0001H14.2219C15.6012 21.0001 16.9169 20.3936 17.7016 19.4291C18.1004 18.939 18.3793 18.3319 18.4167 17.6538C18.4548 16.9651 18.2388 16.2826 17.7802 15.6704C17.5755 15.3972 17.3506 15.1373 17.1065 14.8932C16.556 14.3427 15.9258 13.8902 15.243 13.5471ZM11.9996 14.7778C10.6146 14.7778 9.28632 15.328 8.30696 16.3074C8.13037 16.484 7.96777 16.6719 7.81985 16.8694C7.61628 17.1411 7.56975 17.367 7.57949 17.5435C7.58982 17.7306 7.66894 17.9455 7.84907 18.1669C8.22216 18.6255 8.94761 19.0001 9.77741 19.0001H14.2219C15.0517 19.0001 15.7771 18.6255 16.1502 18.1669C16.3303 17.9455 16.4094 17.7306 16.4198 17.5435C16.4295 17.367 16.383 17.1411 16.1794 16.8694C16.0315 16.6719 15.8689 16.484 15.6923 16.3074C14.7129 15.328 13.3847 14.7778 11.9996 14.7778Z" fill="#605BFF"/>
</svg>
