<svg width="22" height="22" viewBox="0 0 22 22" fill="none" xmlns="http://www.w3.org/2000/svg">
<path fill-rule="evenodd" clip-rule="evenodd" d="M4.75658 3.15381C5.70326 2.7222 6.77061 2.63342 7.77558 2.90271C8.26459 3.03374 8.55479 3.53638 8.42376 4.02539C8.29273 4.5144 7.79009 4.8046 7.30108 4.67357C6.70723 4.51445 6.07652 4.56691 5.51712 4.82195C4.95773 5.077 4.5045 5.51873 4.23517 6.07139C3.96584 6.62406 3.8972 7.25321 4.04101 7.85095C4.18483 8.44869 4.53214 8.97776 5.02338 9.34743C5.28989 9.54799 5.42643 9.87747 5.3799 10.2077C5.33338 10.538 5.11113 10.817 4.79959 10.9361C4.17686 11.1742 3.60478 11.542 3.12429 12.0225C2.96242 12.1844 2.81337 12.3566 2.67777 12.5376C2.39522 12.9148 2.41365 13.2308 2.56234 13.5138C2.73792 13.8479 3.14137 14.1943 3.71205 14.3738C4.19498 14.5258 4.46332 15.0404 4.3114 15.5233C4.15949 16.0063 3.64484 16.2746 3.16191 16.1227C2.22526 15.828 1.38307 15.2108 0.939443 14.3666C0.468931 13.4712 0.494575 12.3942 1.21042 11.4385C1.398 11.1881 1.60415 10.9499 1.82793 10.7261C2.17297 10.3811 2.55219 10.078 2.95761 9.82034C2.63129 9.35923 2.39264 8.83716 2.25855 8.27981C2.01517 7.26825 2.13133 6.20353 2.58712 5.26825C3.0429 4.33298 3.8099 3.58543 4.75658 3.15381ZM16.4819 4.82195C15.9225 4.56691 15.2918 4.51445 14.698 4.67357C14.209 4.8046 13.7063 4.5144 13.5753 4.02539C13.4443 3.53638 13.7345 3.03374 14.2235 2.90271C15.2284 2.63342 16.2958 2.7222 17.2425 3.15381C18.1891 3.58543 18.9562 4.33298 19.4119 5.26825C19.8677 6.20353 19.9839 7.26825 19.7405 8.27981C19.6064 8.83716 19.3678 9.35923 19.0414 9.82034C19.4469 10.078 19.8261 10.3811 20.1711 10.7261C20.3949 10.9499 20.6011 11.1881 20.7886 11.4385C21.5045 12.3942 21.5301 13.4712 21.0596 14.3666C20.616 15.2108 19.7738 15.828 18.8371 16.1227C18.3542 16.2746 17.8396 16.0063 17.6877 15.5233C17.5357 15.0404 17.8041 14.5258 18.287 14.3738C18.8577 14.1943 19.2611 13.8479 19.4367 13.5138C19.5854 13.2308 19.6038 12.9148 19.3213 12.5376C19.1857 12.3566 19.0366 12.1844 18.8748 12.0225C18.3943 11.542 17.8222 11.1742 17.1995 10.9361C16.8879 10.817 16.6657 10.538 16.6192 10.2077C16.5726 9.87747 16.7092 9.54799 16.9757 9.34743C17.4669 8.97776 17.8142 8.44869 17.958 7.85095C18.1019 7.25321 18.0332 6.62406 17.7639 6.07139C17.4946 5.51873 17.0413 5.077 16.4819 4.82195ZM10.9996 6.41667C9.53711 6.41667 8.3515 7.60228 8.3515 9.06482C8.3515 10.5274 9.53714 11.713 10.9997 11.713C12.4622 11.713 13.6478 10.5274 13.6478 9.06482C13.6478 7.60228 12.4622 6.41667 10.9996 6.41667ZM13.9728 12.4181C14.898 11.5972 15.4811 10.3991 15.4811 9.06482C15.4811 6.58976 13.4747 4.58333 10.9996 4.58333C8.52459 4.58333 6.51816 6.58976 6.51816 9.06482C6.51816 10.3991 7.10126 11.5972 8.02654 12.4182C7.40065 12.7327 6.82297 13.1475 6.31836 13.6521C6.09457 13.8759 5.88842 14.1141 5.70084 14.3645C5.28043 14.9258 5.08247 15.5513 5.11733 16.1826C5.15165 16.8042 5.40733 17.3607 5.77286 17.81C6.49216 18.6941 7.69824 19.25 8.96263 19.25H13.0367C14.3011 19.25 15.5072 18.6941 16.2265 17.81C16.592 17.3607 16.8477 16.8042 16.882 16.1826C16.9169 15.5513 16.7189 14.9258 16.2985 14.3645C16.1109 14.1141 15.9048 13.8759 15.681 13.6521C15.1764 13.1475 14.5987 12.7327 13.9728 12.4181ZM10.9997 13.5463C9.73006 13.5463 8.51246 14.0507 7.61472 14.9484C7.45284 15.1103 7.30379 15.2825 7.16819 15.4636C6.98159 15.7127 6.93894 15.9198 6.94787 16.0815C6.95734 16.253 7.02986 16.45 7.19498 16.653C7.53698 17.0734 8.20197 17.4167 8.96263 17.4167H13.0367C13.7974 17.4167 14.4623 17.0734 14.8043 16.653C14.9695 16.45 15.042 16.253 15.0515 16.0815C15.0604 15.9198 15.0177 15.7127 14.8311 15.4636C14.6955 15.2825 14.5465 15.1103 14.3846 14.9484C13.4869 14.0507 12.2693 13.5463 10.9997 13.5463Z" fill="white"/>
</svg>
