<svg width="48" height="48" viewBox="0 0 48 48" fill="none" xmlns="http://www.w3.org/2000/svg">
<g clip-path="url(#clip0_539_1030)">
<path d="M39.757 8.32983H8.24426C6.05807 8.32983 4.32487 10.0827 4.32487 12.2689L4.30518 35.9034C4.30518 38.0896 6.05807 39.8425 8.24426 39.8425H16.1224C17.2057 39.8425 18.092 38.9562 18.092 37.873C18.092 36.7897 17.2057 35.9034 16.1224 35.9034H8.24426V24.0862H43.696V12.2689C43.696 10.1024 41.9235 8.32983 39.757 8.32983ZM39.757 16.208H8.24426V12.2689H39.757V16.208ZM29.7714 38.2078L25.5959 34.0324C24.8278 33.2642 23.587 33.2642 22.8189 34.0324C22.0508 34.8005 22.0508 36.0413 22.8189 36.8094L28.3927 42.3832C29.1608 43.1514 30.4016 43.1514 31.1697 42.3832L42.3174 31.2356C43.0855 30.4675 43.0855 29.2267 42.3174 28.4586C41.5492 27.6904 40.3084 27.6904 39.5403 28.4586L29.7714 38.2078Z" fill="white"/>
</g>
<defs>
<clipPath id="clip0_539_1030">
<rect width="47.269" height="47.269" fill="white" transform="translate(0.366211 0.45166)"/>
</clipPath>
</defs>
</svg>
