<svg width="22" height="16" viewBox="0 0 22 16" fill="none" xmlns="http://www.w3.org/2000/svg">
<path opacity="0.7" d="M1.44 12.084C1.312 12.084 1.22 12.044 1.164 11.964C1.116 11.876 1.108 11.76 1.14 11.616L1.5 9.732L1.848 9.816H0.828C0.74 9.816 0.66 9.804 0.588 9.78C0.524 9.748 0.476 9.708 0.444 9.66C0.412 9.604 0.396 9.54 0.396 9.468C0.396 9.348 0.432 9.26 0.504 9.204C0.584 9.14 0.692 9.108 0.828 9.108H1.98L1.596 9.204L2.184 6.216L2.472 6.336H1.068C0.98 6.336 0.9 6.324 0.828 6.3C0.764 6.268 0.716 6.224 0.684 6.168C0.652 6.112 0.636 6.048 0.636 5.976C0.636 5.856 0.672 5.768 0.744 5.712C0.824 5.656 0.932 5.628 1.068 5.628H2.592L2.268 5.712L2.628 3.852C2.66 3.708 2.712 3.608 2.784 3.552C2.864 3.488 2.964 3.456 3.084 3.456C3.204 3.456 3.288 3.5 3.336 3.588C3.392 3.668 3.404 3.78 3.372 3.924L3.048 5.628H4.956L5.292 3.852C5.324 3.708 5.38 3.608 5.46 3.552C5.54 3.488 5.636 3.456 5.748 3.456C5.868 3.456 5.952 3.5 6 3.588C6.056 3.668 6.072 3.78 6.048 3.924L5.7 5.712L5.412 5.628H6.372C6.468 5.628 6.548 5.644 6.612 5.676C6.676 5.7 6.724 5.736 6.756 5.784C6.788 5.832 6.804 5.896 6.804 5.976C6.804 6.088 6.768 6.176 6.696 6.24C6.624 6.304 6.516 6.336 6.372 6.336H5.28L5.604 6.216L5.028 9.204L4.728 9.108H6.132C6.228 9.108 6.308 9.124 6.372 9.156C6.436 9.18 6.484 9.22 6.516 9.276C6.548 9.324 6.564 9.388 6.564 9.468C6.564 9.58 6.528 9.668 6.456 9.732C6.384 9.788 6.276 9.816 6.132 9.816H4.608L4.932 9.732L4.548 11.688C4.524 11.832 4.472 11.936 4.392 12C4.32 12.056 4.224 12.084 4.104 12.084C3.984 12.084 3.896 12.044 3.84 11.964C3.784 11.876 3.768 11.76 3.792 11.616L4.14 9.816H2.244L1.884 11.688C1.86 11.832 1.808 11.936 1.728 12C1.656 12.056 1.56 12.084 1.44 12.084ZM2.376 9.108H4.272L4.824 6.336H2.916L2.376 9.108Z" fill="#030229"/>
<g opacity="0.7">
<path d="M18.4345 10.3154C18.4055 10.2871 18.2815 10.1805 18.1795 10.0811C17.538 9.49854 16.488 7.97881 16.1675 7.18339C16.116 7.06259 16.007 6.75718 16 6.59401C16 6.43765 16.036 6.2886 16.109 6.14637C16.211 5.96907 16.3715 5.82684 16.561 5.7489C16.6925 5.69873 17.086 5.6208 17.093 5.6208C17.5235 5.54286 18.223 5.5 18.996 5.5C19.7325 5.5 20.4035 5.54286 20.8405 5.60667C20.8475 5.61398 21.3365 5.69191 21.504 5.77716C21.81 5.93351 22 6.23892 22 6.56576V6.59401C21.9925 6.80687 21.8025 7.25451 21.7955 7.25451C21.4745 8.00706 20.476 9.49172 19.8125 10.0884C19.8125 10.0884 19.642 10.2565 19.5355 10.3295C19.3825 10.4435 19.193 10.5 19.0035 10.5C18.792 10.5 18.595 10.4362 18.4345 10.3154Z" fill="#030229"/>
</g>
</svg>
