<svg width="16" height="15" viewBox="0 0 16 15" fill="none" xmlns="http://www.w3.org/2000/svg">
<path fill-rule="evenodd" clip-rule="evenodd" d="M11.6192 0.5C12.6622 0.5 13.6656 0.912222 14.4037 1.65189C15.1426 2.39 15.5556 3.38556 15.5556 4.42778V10.5722C15.5556 12.7422 13.79 14.5 11.6192 14.5H3.93556C1.76478 14.5 0 12.7422 0 10.5722V4.42778C0 2.25778 1.757 0.5 3.93556 0.5H11.6192ZM12.8567 5.58673L12.9189 5.52451C13.1048 5.29895 13.1048 4.97229 12.9103 4.74673C12.8022 4.63084 12.6537 4.56007 12.4989 4.54451C12.3356 4.53595 12.18 4.59118 12.0626 4.70007L8.55556 7.50007C8.10444 7.87418 7.45811 7.87418 7 7.50007L3.5 4.70007C3.25811 4.52118 2.92367 4.54451 2.72222 4.75451C2.51222 4.96451 2.48889 5.29895 2.667 5.53229L2.76889 5.6334L6.30778 8.39451C6.74333 8.73673 7.27144 8.9234 7.82444 8.9234C8.37589 8.9234 8.91333 8.73673 9.34811 8.39451L12.8567 5.58673Z" fill="#3A974C"/>
</svg>
